<svg width="13" height="12" viewBox="0 0 13 12" fill="none" xmlns="http://www.w3.org/2000/svg">
<path d="M12.8845 1.72974L6.38112 11.1164L6.15531 11.4429C5.94866 11.7434 5.62216 11.9415 5.25851 11.9872C5.20289 11.9946 5.14688 11.9989 5.09076 12C4.7833 11.9996 4.486 11.8906 4.25203 11.6927L0.226124 8.26711C0.0959198 8.15683 0.0152676 7.99967 0.00195398 7.83031C-0.0113597 7.66095 0.0437596 7.49328 0.155155 7.3643L0.993886 6.39106C1.10501 6.26184 1.26336 6.1818 1.43402 6.16858C1.60467 6.15537 1.77362 6.21007 1.90359 6.32062L4.83915 8.81776L6.38112 6.59595L10.7554 0.276281C10.9586 -0.0125589 11.3575 -0.0866086 11.6522 0.109806L12.7168 0.833335C12.8595 0.929529 12.9576 1.07841 12.9891 1.2468C13.0206 1.41518 12.983 1.58908 12.8845 1.72974Z" fill="#03A561"/>
</svg>
